<mxfile host="app.diagrams.net" modified="2022-08-12T09:39:44.432Z" agent="5.0 (Windows NT 10.0; Win64; x64) AppleWebKit/537.36 (KHTML, like Gecko) Chrome/103.0.5060.134 Safari/537.36 Edg/103.0.1264.77" etag="likmDTAzJYxyqWYEDHbD" version="20.2.3" type="github">
  <diagram id="yPxyJZ8AM_hMuL3Unpa9" name="simple gitflow">
    <mxGraphModel dx="1718" dy="1812" grid="1" gridSize="10" guides="1" tooltips="1" connect="1" arrows="1" fold="1" page="1" pageScale="1" pageWidth="1100" pageHeight="850" math="0" shadow="0">
      <root>
        <mxCell id="0" />
        <mxCell id="1" parent="0" />
        <mxCell id="E1HA2y7lL46FJZxDiiPk-41" value="" style="shape=ext;double=1;rounded=0;whiteSpace=wrap;html=1;fontFamily=Helvetica;fontSize=15;fontColor=default;" vertex="1" parent="1">
          <mxGeometry x="255" y="100" width="120" height="590" as="geometry" />
        </mxCell>
        <mxCell id="9hBKPDzoitwpIBdzFDQ7-27" value="" style="edgeStyle=orthogonalEdgeStyle;rounded=0;html=1;jettySize=auto;orthogonalLoop=1;strokeWidth=4;endArrow=none;endFill=0;startArrow=none;entryX=0.496;entryY=0.966;entryDx=0;entryDy=0;entryPerimeter=0;" parent="1" target="E1HA2y7lL46FJZxDiiPk-41" edge="1" source="E1HA2y7lL46FJZxDiiPk-22">
          <mxGeometry x="229.58" y="345" as="geometry">
            <mxPoint x="315.08000000000004" y="160" as="sourcePoint" />
            <mxPoint x="314.5" y="620" as="targetPoint" />
            <Array as="points" />
          </mxGeometry>
        </mxCell>
        <mxCell id="9hBKPDzoitwpIBdzFDQ7-28" value="devel" style="text;html=1;strokeColor=none;fillColor=none;align=center;verticalAlign=middle;whiteSpace=wrap;overflow=hidden;fontSize=14;fontStyle=1;fontFamily=Courier New;" parent="1" vertex="1">
          <mxGeometry x="290" y="120" width="50" height="20" as="geometry" />
        </mxCell>
        <mxCell id="E1HA2y7lL46FJZxDiiPk-13" value="feature/&lt;br&gt;123456-fw" style="text;html=1;strokeColor=none;fillColor=none;align=left;verticalAlign=middle;whiteSpace=wrap;overflow=hidden;fontSize=14;fontStyle=1;fontFamily=Courier New;" vertex="1" parent="1">
          <mxGeometry x="563" y="105" width="81" height="50" as="geometry" />
        </mxCell>
        <mxCell id="E1HA2y7lL46FJZxDiiPk-15" value="feature/&lt;br&gt;123456-eco" style="text;html=1;strokeColor=none;fillColor=none;align=left;verticalAlign=middle;whiteSpace=wrap;overflow=hidden;fontSize=14;fontStyle=1;fontFamily=Courier New;" vertex="1" parent="1">
          <mxGeometry x="714" y="110" width="111" height="40" as="geometry" />
        </mxCell>
        <mxCell id="E1HA2y7lL46FJZxDiiPk-14" value="feature/&lt;br&gt;123456-des" style="text;html=1;strokeColor=none;fillColor=none;align=left;verticalAlign=middle;whiteSpace=wrap;overflow=hidden;fontSize=14;fontStyle=1;fontFamily=Courier New;" vertex="1" parent="1">
          <mxGeometry x="120" y="110" width="120" height="40" as="geometry" />
        </mxCell>
        <mxCell id="E1HA2y7lL46FJZxDiiPk-23" value="" style="verticalLabelPosition=bottom;verticalAlign=top;html=1;strokeWidth=4;shape=mxgraph.flowchart.on-page_reference;plain-purple;gradientColor=none;strokeColor=#000000;" vertex="1" parent="1">
          <mxGeometry x="1000" y="30" width="30" height="30" as="geometry" />
        </mxCell>
        <mxCell id="E1HA2y7lL46FJZxDiiPk-24" value="" style="edgeStyle=orthogonalEdgeStyle;curved=1;rounded=0;html=1;endArrow=none;endFill=0;jettySize=auto;orthogonalLoop=1;strokeWidth=4;fontSize=15;entryX=1;entryY=0.5;entryDx=0;entryDy=0;entryPerimeter=0;exitX=0.5;exitY=0;exitDx=0;exitDy=0;exitPerimeter=0;" edge="1" parent="1" source="E1HA2y7lL46FJZxDiiPk-30" target="E1HA2y7lL46FJZxDiiPk-22">
          <mxGeometry relative="1" as="geometry">
            <mxPoint x="480" y="400" as="sourcePoint" />
            <mxPoint x="397.5" y="200" as="targetPoint" />
            <Array as="points">
              <mxPoint x="447" y="200" />
              <mxPoint x="400" y="200" />
              <mxPoint x="400" y="195" />
            </Array>
          </mxGeometry>
        </mxCell>
        <mxCell id="E1HA2y7lL46FJZxDiiPk-25" value="" style="edgeStyle=orthogonalEdgeStyle;curved=1;rounded=0;html=1;exitX=0.5;exitY=1;exitPerimeter=0;endArrow=none;endFill=0;jettySize=auto;orthogonalLoop=1;strokeWidth=4;fontSize=15;entryX=0.5;entryY=1;entryDx=0;entryDy=0;entryPerimeter=0;exitDx=0;exitDy=0;" edge="1" parent="1">
          <mxGeometry relative="1" as="geometry">
            <mxPoint x="890" y="-10" as="sourcePoint" />
            <mxPoint x="955.5" y="70" as="targetPoint" />
            <Array as="points" />
          </mxGeometry>
        </mxCell>
        <mxCell id="E1HA2y7lL46FJZxDiiPk-22" value="" style="verticalLabelPosition=bottom;verticalAlign=top;html=1;strokeWidth=4;shape=mxgraph.flowchart.on-page_reference;plain-blue;gradientColor=none;fillColor=#B5E3Fe;strokeColor=#000000;" vertex="1" parent="1">
          <mxGeometry x="300" y="180" width="30" height="30" as="geometry" />
        </mxCell>
        <mxCell id="E1HA2y7lL46FJZxDiiPk-26" value="" style="edgeStyle=orthogonalEdgeStyle;rounded=0;html=1;jettySize=auto;orthogonalLoop=1;strokeWidth=4;endArrow=none;endFill=0;" edge="1" parent="1" target="E1HA2y7lL46FJZxDiiPk-22">
          <mxGeometry x="229.58" y="345" as="geometry">
            <mxPoint x="315.0799999999999" y="160" as="sourcePoint" />
            <mxPoint x="314.58000000000015" y="330" as="targetPoint" />
            <Array as="points" />
          </mxGeometry>
        </mxCell>
        <mxCell id="E1HA2y7lL46FJZxDiiPk-27" value="&lt;font style=&quot;font-size: 16px;&quot;&gt;feature/&lt;br&gt;123456-INT&lt;/font&gt;" style="text;html=1;strokeColor=none;fillColor=none;align=left;verticalAlign=middle;whiteSpace=wrap;overflow=hidden;fontSize=14;fontStyle=1;fontFamily=Courier New;" vertex="1" parent="1">
          <mxGeometry x="402" y="105" width="112.5" height="50" as="geometry" />
        </mxCell>
        <mxCell id="E1HA2y7lL46FJZxDiiPk-30" value="" style="verticalLabelPosition=bottom;verticalAlign=top;html=1;strokeWidth=4;shape=mxgraph.flowchart.on-page_reference;plain-blue;gradientColor=none;fillColor=#B5E3Fe;strokeColor=#000000;" vertex="1" parent="1">
          <mxGeometry x="432" y="218" width="30" height="30" as="geometry" />
        </mxCell>
        <mxCell id="E1HA2y7lL46FJZxDiiPk-31" value="" style="verticalLabelPosition=bottom;verticalAlign=top;html=1;strokeWidth=4;shape=mxgraph.flowchart.on-page_reference;plain-blue;gradientColor=none;fillColor=#B5E3Fe;strokeColor=#000000;" vertex="1" parent="1">
          <mxGeometry x="131" y="291" width="30" height="30" as="geometry" />
        </mxCell>
        <mxCell id="E1HA2y7lL46FJZxDiiPk-32" value="" style="verticalLabelPosition=bottom;verticalAlign=top;html=1;strokeWidth=4;shape=mxgraph.flowchart.on-page_reference;plain-blue;gradientColor=none;fillColor=#B5E3Fe;strokeColor=#000000;" vertex="1" parent="1">
          <mxGeometry x="595.5" y="281" width="30" height="30" as="geometry" />
        </mxCell>
        <mxCell id="E1HA2y7lL46FJZxDiiPk-33" value="" style="verticalLabelPosition=bottom;verticalAlign=top;html=1;strokeWidth=4;shape=mxgraph.flowchart.on-page_reference;plain-blue;gradientColor=none;fillColor=#B5E3Fe;strokeColor=#000000;" vertex="1" parent="1">
          <mxGeometry x="755.5" y="281" width="30" height="30" as="geometry" />
        </mxCell>
        <mxCell id="E1HA2y7lL46FJZxDiiPk-35" value="" style="edgeStyle=orthogonalEdgeStyle;curved=1;rounded=0;html=1;endArrow=none;endFill=0;jettySize=auto;orthogonalLoop=1;strokeWidth=4;fontSize=15;exitX=0.5;exitY=0;exitDx=0;exitDy=0;exitPerimeter=0;entryX=0.855;entryY=0.855;entryDx=0;entryDy=0;entryPerimeter=0;" edge="1" parent="1" source="E1HA2y7lL46FJZxDiiPk-32" target="E1HA2y7lL46FJZxDiiPk-30">
          <mxGeometry relative="1" as="geometry">
            <mxPoint x="170" y="295" as="sourcePoint" />
            <mxPoint x="480" y="250" as="targetPoint" />
            <Array as="points">
              <mxPoint x="611" y="260" />
              <mxPoint x="458" y="260" />
            </Array>
          </mxGeometry>
        </mxCell>
        <mxCell id="E1HA2y7lL46FJZxDiiPk-36" value="" style="edgeStyle=orthogonalEdgeStyle;curved=1;rounded=0;html=1;endArrow=none;endFill=0;jettySize=auto;orthogonalLoop=1;strokeWidth=4;fontSize=15;entryX=0.5;entryY=0;entryDx=0;entryDy=0;entryPerimeter=0;exitX=1;exitY=0.5;exitDx=0;exitDy=0;exitPerimeter=0;" edge="1" parent="1" source="E1HA2y7lL46FJZxDiiPk-30" target="E1HA2y7lL46FJZxDiiPk-33">
          <mxGeometry relative="1" as="geometry">
            <mxPoint x="490" y="227" as="sourcePoint" />
            <mxPoint x="800" y="190" as="targetPoint" />
          </mxGeometry>
        </mxCell>
        <mxCell id="E1HA2y7lL46FJZxDiiPk-45" value="" style="edgeStyle=orthogonalEdgeStyle;curved=1;rounded=0;html=1;endArrow=none;endFill=0;jettySize=auto;orthogonalLoop=1;strokeWidth=4;fontSize=15;exitX=0.5;exitY=0;exitDx=0;exitDy=0;exitPerimeter=0;entryX=0;entryY=0.5;entryDx=0;entryDy=0;entryPerimeter=0;" edge="1" parent="1" source="E1HA2y7lL46FJZxDiiPk-31" target="E1HA2y7lL46FJZxDiiPk-30">
          <mxGeometry relative="1" as="geometry">
            <mxPoint x="65.0700000000001" y="190.00000000000009" as="sourcePoint" />
            <mxPoint x="240" y="206" as="targetPoint" />
            <Array as="points">
              <mxPoint x="145" y="233" />
            </Array>
          </mxGeometry>
        </mxCell>
        <mxCell id="E1HA2y7lL46FJZxDiiPk-46" value="" style="edgeStyle=orthogonalEdgeStyle;rounded=0;html=1;jettySize=auto;orthogonalLoop=1;strokeWidth=4;endArrow=none;endFill=0;startArrow=none;" edge="1" parent="1">
          <mxGeometry x="525.1600000000001" y="446" as="geometry">
            <mxPoint x="610.0799999999999" y="311" as="sourcePoint" />
            <mxPoint x="610" y="340" as="targetPoint" />
            <Array as="points">
              <mxPoint x="610.6600000000001" y="346" />
            </Array>
          </mxGeometry>
        </mxCell>
        <mxCell id="E1HA2y7lL46FJZxDiiPk-47" value="" style="verticalLabelPosition=bottom;verticalAlign=top;html=1;strokeWidth=4;shape=mxgraph.flowchart.on-page_reference;plain-blue;gradientColor=none;fillColor=#B5E3Fe;strokeColor=#000000;" vertex="1" parent="1">
          <mxGeometry x="595.5" y="340" width="30" height="30" as="geometry" />
        </mxCell>
        <mxCell id="E1HA2y7lL46FJZxDiiPk-48" value="" style="edgeStyle=orthogonalEdgeStyle;curved=1;rounded=0;html=1;endArrow=none;endFill=0;jettySize=auto;orthogonalLoop=1;strokeWidth=4;fontSize=15;startArrow=none;exitX=1;exitY=0.5;exitDx=0;exitDy=0;exitPerimeter=0;" edge="1" parent="1" source="E1HA2y7lL46FJZxDiiPk-49">
          <mxGeometry relative="1" as="geometry">
            <mxPoint x="480" y="440" as="sourcePoint" />
            <mxPoint x="611" y="370" as="targetPoint" />
            <Array as="points">
              <mxPoint x="462" y="477" />
              <mxPoint x="610" y="477" />
              <mxPoint x="610" y="370" />
            </Array>
          </mxGeometry>
        </mxCell>
        <mxCell id="E1HA2y7lL46FJZxDiiPk-51" value="" style="edgeStyle=orthogonalEdgeStyle;rounded=0;html=1;jettySize=auto;orthogonalLoop=1;strokeWidth=4;endArrow=none;endFill=0;startArrow=none;" edge="1" parent="1" source="E1HA2y7lL46FJZxDiiPk-52">
          <mxGeometry x="685.1600000000001" y="446" as="geometry">
            <mxPoint x="770.0799999999999" y="311" as="sourcePoint" />
            <mxPoint x="770" y="510" as="targetPoint" />
            <Array as="points">
              <mxPoint x="770.6600000000001" y="346" />
            </Array>
          </mxGeometry>
        </mxCell>
        <mxCell id="E1HA2y7lL46FJZxDiiPk-52" value="" style="verticalLabelPosition=bottom;verticalAlign=top;html=1;strokeWidth=4;shape=mxgraph.flowchart.on-page_reference;plain-blue;gradientColor=none;fillColor=#B5E3Fe;strokeColor=#000000;" vertex="1" parent="1">
          <mxGeometry x="754.5" y="340" width="30" height="30" as="geometry" />
        </mxCell>
        <mxCell id="E1HA2y7lL46FJZxDiiPk-69" value="" style="edgeStyle=orthogonalEdgeStyle;shape=connector;curved=1;rounded=0;orthogonalLoop=1;jettySize=auto;html=1;labelBackgroundColor=default;fontFamily=Helvetica;fontSize=15;fontColor=default;endArrow=none;endFill=0;strokeColor=default;strokeWidth=4;" edge="1" parent="1" source="E1HA2y7lL46FJZxDiiPk-49" target="E1HA2y7lL46FJZxDiiPk-60">
          <mxGeometry relative="1" as="geometry" />
        </mxCell>
        <mxCell id="E1HA2y7lL46FJZxDiiPk-49" value="" style="verticalLabelPosition=bottom;verticalAlign=top;html=1;strokeWidth=4;shape=mxgraph.flowchart.on-page_reference;plain-blue;gradientColor=none;fillColor=#B5E3Fe;strokeColor=#000000;" vertex="1" parent="1">
          <mxGeometry x="428" y="470" width="30" height="30" as="geometry" />
        </mxCell>
        <mxCell id="E1HA2y7lL46FJZxDiiPk-53" value="" style="edgeStyle=orthogonalEdgeStyle;rounded=0;html=1;jettySize=auto;orthogonalLoop=1;strokeWidth=4;endArrow=none;endFill=0;startArrow=none;" edge="1" parent="1" target="E1HA2y7lL46FJZxDiiPk-52">
          <mxGeometry x="685.1600000000001" y="446" as="geometry">
            <mxPoint x="770.0799999999999" y="311" as="sourcePoint" />
            <mxPoint x="770" y="380" as="targetPoint" />
            <Array as="points" />
          </mxGeometry>
        </mxCell>
        <mxCell id="E1HA2y7lL46FJZxDiiPk-54" value="" style="edgeStyle=orthogonalEdgeStyle;curved=1;rounded=0;html=1;endArrow=none;endFill=0;jettySize=auto;orthogonalLoop=1;strokeWidth=4;fontSize=15;startArrow=none;entryX=0;entryY=0.5;entryDx=0;entryDy=0;entryPerimeter=0;exitX=1;exitY=0.5;exitDx=0;exitDy=0;exitPerimeter=0;" edge="1" parent="1" source="E1HA2y7lL46FJZxDiiPk-60" target="E1HA2y7lL46FJZxDiiPk-55">
          <mxGeometry relative="1" as="geometry">
            <mxPoint x="490" y="550" as="sourcePoint" />
            <mxPoint x="750" y="510" as="targetPoint" />
            <Array as="points">
              <mxPoint x="462" y="540" />
              <mxPoint x="710" y="540" />
              <mxPoint x="710" y="530" />
            </Array>
          </mxGeometry>
        </mxCell>
        <mxCell id="E1HA2y7lL46FJZxDiiPk-55" value="" style="verticalLabelPosition=bottom;verticalAlign=top;html=1;strokeWidth=4;shape=mxgraph.flowchart.on-page_reference;plain-blue;gradientColor=none;fillColor=#B5E3Fe;strokeColor=#000000;" vertex="1" parent="1">
          <mxGeometry x="754.5" y="515" width="30" height="30" as="geometry" />
        </mxCell>
        <mxCell id="E1HA2y7lL46FJZxDiiPk-57" value="" style="edgeStyle=orthogonalEdgeStyle;rounded=0;html=1;jettySize=auto;orthogonalLoop=1;strokeWidth=4;endArrow=none;endFill=0;startArrow=none;" edge="1" parent="1">
          <mxGeometry x="60.660000000000025" y="456" as="geometry">
            <mxPoint x="145.57999999999993" y="321" as="sourcePoint" />
            <mxPoint x="145" y="540" as="targetPoint" />
            <Array as="points">
              <mxPoint x="146.16000000000008" y="356" />
            </Array>
          </mxGeometry>
        </mxCell>
        <mxCell id="E1HA2y7lL46FJZxDiiPk-58" value="" style="verticalLabelPosition=bottom;verticalAlign=top;html=1;strokeWidth=4;shape=mxgraph.flowchart.on-page_reference;plain-blue;gradientColor=none;fillColor=#B5E3Fe;strokeColor=#000000;" vertex="1" parent="1">
          <mxGeometry x="130" y="530" width="30" height="30" as="geometry" />
        </mxCell>
        <mxCell id="E1HA2y7lL46FJZxDiiPk-61" value="" style="edgeStyle=orthogonalEdgeStyle;rounded=0;html=1;jettySize=auto;orthogonalLoop=1;strokeWidth=4;endArrow=none;endFill=0;startArrow=none;" edge="1" parent="1">
          <mxGeometry x="361.66" y="383" as="geometry">
            <mxPoint x="446.5799999999999" y="248" as="sourcePoint" />
            <mxPoint x="447" y="470" as="targetPoint" />
            <Array as="points">
              <mxPoint x="450" y="248" />
              <mxPoint x="450" y="359" />
              <mxPoint x="447" y="359" />
            </Array>
          </mxGeometry>
        </mxCell>
        <mxCell id="E1HA2y7lL46FJZxDiiPk-59" value="" style="edgeStyle=orthogonalEdgeStyle;curved=1;rounded=0;html=1;endArrow=none;endFill=0;jettySize=auto;orthogonalLoop=1;strokeWidth=4;fontSize=15;entryX=0.5;entryY=1;entryDx=0;entryDy=0;entryPerimeter=0;exitX=0.145;exitY=0.855;exitDx=0;exitDy=0;exitPerimeter=0;" edge="1" parent="1" source="E1HA2y7lL46FJZxDiiPk-60" target="E1HA2y7lL46FJZxDiiPk-58">
          <mxGeometry relative="1" as="geometry">
            <mxPoint x="410" y="590" as="sourcePoint" />
            <mxPoint x="367" y="680" as="targetPoint" />
            <Array as="points">
              <mxPoint x="250" y="566" />
              <mxPoint x="250" y="570" />
              <mxPoint x="145" y="570" />
            </Array>
          </mxGeometry>
        </mxCell>
        <mxCell id="E1HA2y7lL46FJZxDiiPk-60" value="" style="verticalLabelPosition=bottom;verticalAlign=top;html=1;strokeWidth=4;shape=mxgraph.flowchart.on-page_reference;plain-blue;gradientColor=none;fillColor=#B5E3Fe;strokeColor=#000000;" vertex="1" parent="1">
          <mxGeometry x="432" y="540" width="30" height="30" as="geometry" />
        </mxCell>
        <mxCell id="E1HA2y7lL46FJZxDiiPk-66" value="" style="edgeStyle=orthogonalEdgeStyle;shape=connector;curved=1;rounded=0;orthogonalLoop=1;jettySize=auto;html=1;labelBackgroundColor=default;fontFamily=Helvetica;fontSize=15;fontColor=default;endArrow=none;endFill=0;strokeColor=default;strokeWidth=4;" edge="1" parent="1" source="E1HA2y7lL46FJZxDiiPk-63" target="E1HA2y7lL46FJZxDiiPk-55">
          <mxGeometry relative="1" as="geometry" />
        </mxCell>
        <mxCell id="E1HA2y7lL46FJZxDiiPk-63" value="" style="verticalLabelPosition=bottom;verticalAlign=top;html=1;strokeWidth=4;shape=mxgraph.flowchart.on-page_reference;plain-blue;gradientColor=none;fillColor=#B5E3Fe;strokeColor=#000000;" vertex="1" parent="1">
          <mxGeometry x="754.5" y="575" width="30" height="30" as="geometry" />
        </mxCell>
        <mxCell id="E1HA2y7lL46FJZxDiiPk-64" value="" style="edgeStyle=orthogonalEdgeStyle;rounded=0;html=1;jettySize=auto;orthogonalLoop=1;strokeWidth=4;endArrow=none;endFill=0;startArrow=none;" edge="1" parent="1">
          <mxGeometry x="684.2400000000001" y="630" as="geometry">
            <mxPoint x="769.08" y="554" as="sourcePoint" />
            <mxPoint x="769" y="580" as="targetPoint" />
            <Array as="points">
              <mxPoint x="769" y="570" />
              <mxPoint x="769" y="570" />
            </Array>
          </mxGeometry>
        </mxCell>
        <mxCell id="E1HA2y7lL46FJZxDiiPk-67" value="" style="verticalLabelPosition=bottom;verticalAlign=top;html=1;strokeWidth=4;shape=mxgraph.flowchart.on-page_reference;plain-blue;gradientColor=none;fillColor=#B5E3Fe;strokeColor=#000000;" vertex="1" parent="1">
          <mxGeometry x="300" y="650" width="30" height="30" as="geometry" />
        </mxCell>
        <mxCell id="E1HA2y7lL46FJZxDiiPk-68" value="" style="edgeStyle=orthogonalEdgeStyle;curved=1;rounded=0;html=1;endArrow=none;endFill=0;jettySize=auto;orthogonalLoop=1;strokeWidth=4;fontSize=15;startArrow=none;exitX=0.5;exitY=1;exitDx=0;exitDy=0;exitPerimeter=0;entryX=1;entryY=0.5;entryDx=0;entryDy=0;entryPerimeter=0;" edge="1" parent="1" source="E1HA2y7lL46FJZxDiiPk-63" target="E1HA2y7lL46FJZxDiiPk-67">
          <mxGeometry relative="1" as="geometry">
            <mxPoint x="410" y="655" as="sourcePoint" />
            <mxPoint x="460" y="750" as="targetPoint" />
            <Array as="points">
              <mxPoint x="770" y="630" />
              <mxPoint x="330" y="630" />
            </Array>
          </mxGeometry>
        </mxCell>
      </root>
    </mxGraphModel>
  </diagram>
</mxfile>
